<?xml version="1.0" encoding="UTF-8"?>
<svg width="198px" height="196px" viewBox="0 0 198 196" version="1.1" xmlns="http://www.w3.org/2000/svg" xmlns:xlink="http://www.w3.org/1999/xlink">
    <!-- Generator: Sketch 49.2 (51160) - http://www.bohemiancoding.com/sketch -->
    <title>Logo</title>
    <desc>Created with Sketch.</desc>
    <defs></defs>
    <g id="Page-1" stroke="none" stroke-width="1" fill="none" fill-rule="evenodd">
        <g id="learntoios" fill-rule="nonzero">
            <g id="Logo">
                <ellipse id="Oval" fill="#F4A261" cx="98.5537829" cy="98" rx="98.5537829" ry="98"></ellipse>
                <path d="M154.850385,146.623417 C151.249058,143.666781 145.925265,139.989026 141.315148,138.648514 C131.884428,135.914497 127.211915,140.964719 127.170407,141.026765 C115.622756,151.685356 85.4353991,157.013586 54.4864295,135.464464 C46.4455729,129.867811 39.6122105,124.59923 34,118.669713 C37.9869538,120.526832 42.9572561,122.549317 48.5994598,124.238938 C67.9177612,130.019331 85.8349514,128.974935 100.425306,121.210935 C101.117828,120.841322 101.581919,120.154822 101.662794,119.376718 C101.741258,118.598613 101.427401,117.831693 100.822448,117.331331 C90.4868438,108.773249 67.297009,88.4855501 49.617622,65.0657284 C66.8329177,79.183715 74.8389608,85.0320131 87.5386726,92.6098758 C88.56835,93.2239444 89.895817,92.9736302 90.6298471,92.0280284 C91.3617349,91.0810952 91.2623824,89.7403165 90.4035591,88.908155 C82.2727229,81.0536153 72.6665959,68.5895664 65.5306235,58.7538164 C80.1579342,71.0354555 102.925186,89.6564346 116.936297,98.6885162 C117.492778,99.0488089 118.18289,99.1545267 118.820245,98.9915562 C119.461886,98.8240587 120.004441,98.3947965 120.314014,97.8116177 C128.530277,82.2852143 127.449986,62.7780165 117.585168,43 C141.878592,64.6822684 153.227538,94.8938596 144.833458,118.35043 C144.524153,119.213481 144.748031,120.175593 145.408417,120.818155 C151.595587,126.841939 155.003029,134.90179 155.003029,143.512864 C155.002761,144.552999 154.95188,145.590472 154.850385,146.623417 Z" id="Shape" fill="#FFFFFF"></path>
            </g>
        </g>
    </g>
</svg>