<?xml version="1.0" encoding="UTF-8"?>
<svg width="841px" height="196px" viewBox="0 0 841 196" version="1.1" xmlns="http://www.w3.org/2000/svg" xmlns:xlink="http://www.w3.org/1999/xlink">
    <!-- Generator: Sketch 49.1 (51147) - http://www.bohemiancoding.com/sketch -->
    <title>LearnTo: iOS</title>
    <desc>Created with Sketch.</desc>
    <defs></defs>
    <g id="Page-2" stroke="none" stroke-width="1" fill="none" fill-rule="evenodd">
        <g id="Desktop-HD" transform="translate(-299.000000, -215.000000)">
            <g id="Group" transform="translate(299.000000, 215.000000)">
                <g id="LearnTo:-iOS">
                    <g id="Text" transform="translate(241.687629, 52.925932)">
                        <path d="M424.987068,86.712194 L424.987068,25.6106189 L435.267598,25.6106189 L435.267598,86.712194 L424.987068,86.712194 Z M430.127333,15.3291039 C426.641406,15.3291039 423.746314,12.4502796 423.746314,8.98394029 C423.746314,5.45884942 426.641406,2.63877672 430.127333,2.63877672 C433.672344,2.63877672 436.567436,5.45884942 436.567436,8.98394029 C436.567436,12.4502796 433.672344,15.3291039 430.127333,15.3291039 Z M486.729336,0.523722195 C510.894491,0.523722195 526.01987,17.4441584 526.01987,44.352352 C526.01987,71.2605457 510.894491,88.1222304 486.729336,88.1222304 C462.56418,88.1222304 447.438801,71.2605457 447.438801,44.352352 C447.438801,17.4441584 462.56418,0.523722195 486.729336,0.523722195 Z M486.729336,10.2764736 C469.2997,10.2764736 458.369251,23.4368129 458.369251,44.352352 C458.369251,65.2091397 469.2997,78.369479 486.729336,78.369479 C504.158971,78.369479 515.089421,65.2091397 515.089421,44.352352 C515.089421,23.4368129 504.158971,10.2764736 486.729336,10.2764736 Z M535.177814,63.3878428 L545.87193,63.3878428 C546.876349,72.553079 555.620709,78.604485 567.791912,78.604485 C579.313196,78.604485 587.703055,72.553079 587.703055,64.210364 C587.703055,57.0426792 582.680956,52.6363156 571.218755,49.6987399 L560.288306,46.8786672 C544.572092,42.8835642 537.600238,36.009637 537.600238,24.4943401 C537.600238,10.3939766 550.007775,0.523722195 567.732828,0.523722195 C584.689796,0.523722195 596.979166,10.5114797 597.451834,24.7293462 L586.816802,24.7293462 C585.871466,15.6228614 578.486027,10.0414676 567.378327,10.0414676 C556.329711,10.0414676 548.648855,15.7403645 548.648855,24.024328 C548.648855,30.4282431 553.375535,34.2470915 564.955903,37.2434188 L573.877513,39.5934794 C591.543483,43.999843 598.692588,50.7562671 598.692588,62.9178306 C598.692588,78.4282305 586.403218,88.1222304 566.787492,88.1222304 C548.707938,88.1222304 536.182234,78.369479 535.177814,63.3878428 Z" id="iOS" fill="#9B9B9B"></path>
                        <path d="M53.9432449,72.8734294 L53.9432449,85.6812596 L0,85.6812596 L0,0.902824073 L15.2435457,0.902824073 L15.2435457,72.8734294 L53.9432449,72.8734294 Z M89.2479434,33.4511631 C80.976252,33.4511631 75.0088174,39.7375752 74.4179823,48.4327993 L103.66432,48.4327993 C103.368902,39.6200722 97.6968854,33.4511631 89.2479434,33.4511631 Z M103.723403,67.0570294 L117.489861,67.0570294 C115.599189,78.8073324 104.609656,86.9150414 89.779695,86.9150414 C70.9911387,86.9150414 59.6471048,74.6359748 59.6471048,54.7779629 C59.6471048,35.0962055 71.1093058,22.1121208 89.1888599,22.1121208 C106.972997,22.1121208 118.080696,34.3911874 118.080696,53.309175 L118.080696,58.0680477 L74.2998153,58.0680477 L74.2998153,58.9493204 C74.2998153,68.9370779 80.4445004,75.6347506 90.0751126,75.6347506 C96.9287998,75.6347506 102.128149,72.2271627 103.723403,67.0570294 Z M150.431219,75.6347506 C158.761994,75.6347506 165.438431,70.1121082 165.438431,62.5919143 L165.438431,57.8330417 L150.962971,58.7143144 C143.87295,59.1843265 139.796188,62.3569083 139.796188,67.2920355 C139.796188,72.4034173 144.0502,75.6347506 150.431219,75.6347506 Z M145.999956,86.6800353 C133.887837,86.6800353 125.084394,79.1010899 125.084394,67.8795506 C125.084394,56.8342659 133.651503,50.1953448 148.895048,49.2553205 L165.438431,48.3152963 L165.438431,43.8501812 C165.438431,37.3287631 161.007168,33.5686662 153.739896,33.5686662 C146.768042,33.5686662 142.336779,36.9175025 141.391442,42.0876358 L127.743152,42.0876358 C128.39307,30.4548359 138.378183,22.1121208 154.330731,22.1121208 C169.869694,22.1121208 179.972975,30.2785813 179.972975,42.7926539 L179.972975,85.6812596 L165.792932,85.6812596 L165.792932,75.7522536 L165.497515,75.7522536 C161.89342,82.5086778 154.035314,86.6800353 145.999956,86.6800353 Z M191.82152,85.6812596 L191.82152,23.4046541 L205.942479,23.4046541 L205.942479,34.2736843 L206.237896,34.2736843 C208.364902,26.694739 213.859669,22.3471269 221.245108,22.3471269 C223.13578,22.3471269 224.790118,22.699636 225.853621,22.934642 L225.853621,36.1537328 C224.612868,35.6837207 222.367694,35.3312116 219.886187,35.3312116 C211.555412,35.3312116 206.533314,40.6775994 206.533314,49.4315751 L206.533314,85.6812596 L191.82152,85.6812596 Z M233.448154,85.6812596 L233.448154,23.4046541 L247.569113,23.4046541 L247.569113,34.0974298 L247.86453,34.0974298 C251.23229,26.694739 257.908727,22.2296239 267.539339,22.2296239 C281.364881,22.2296239 289.222987,31.042351 289.222987,45.4364721 L289.222987,85.6812596 L274.511193,85.6812596 L274.511193,48.3740478 C274.511193,39.5613206 270.375348,34.6261934 261.985489,34.6261934 C253.536547,34.6261934 248.159948,40.6775994 248.159948,49.6078296 L248.159948,85.6812596 L233.448154,85.6812596 Z M329.835873,85.6812596 L314.651411,85.6812596 L314.651411,13.7106542 L289.127334,13.7106542 L289.127334,0.902824073 L355.300866,0.902824073 L355.300866,13.7106542 L329.835873,13.7106542 L329.835873,85.6812596 Z M376.043034,86.9150414 C357.668062,86.9150414 345.733193,74.7534778 345.733193,54.5429568 C345.733193,34.4499389 357.786229,22.1121208 376.043034,22.1121208 C394.299839,22.1121208 406.352875,34.3911874 406.352875,54.5429568 C406.352875,74.7534778 394.418006,86.9150414 376.043034,86.9150414 Z M376.043034,75.340993 C385.378229,75.340993 391.404747,67.8207991 391.404747,54.5429568 C391.404747,41.3238661 385.378229,33.7449207 376.043034,33.7449207 C366.766923,33.7449207 360.681321,41.3238661 360.681321,54.5429568 C360.681321,67.8207991 366.707839,75.340993 376.043034,75.340993 Z" id="LearnTo" fill="#4A4A4A"></path>
                    </g>
                    <g id="Logo">
                        <ellipse id="Oval" fill="#F4A261" cx="98.5537829" cy="98" rx="98.5537829" ry="98"></ellipse>
                        <path d="M154.850385,146.623417 C151.249058,143.666781 145.925265,139.989026 141.315148,138.648514 C131.884428,135.914497 127.211915,140.964719 127.170407,141.026765 C115.622756,151.685356 85.4353991,157.013586 54.4864295,135.464464 C46.4455729,129.867811 39.6122105,124.59923 34,118.669713 C37.9869538,120.526832 42.9572561,122.549317 48.5994598,124.238938 C67.9177612,130.019331 85.8349514,128.974935 100.425306,121.210935 C101.117828,120.841322 101.581919,120.154822 101.662794,119.376718 C101.741258,118.598613 101.427401,117.831693 100.822448,117.331331 C90.4868438,108.773249 67.297009,88.4855501 49.617622,65.0657284 C66.8329177,79.183715 74.8389608,85.0320131 87.5386726,92.6098758 C88.56835,93.2239444 89.895817,92.9736302 90.6298471,92.0280284 C91.3617349,91.0810952 91.2623824,89.7403165 90.4035591,88.908155 C82.2727229,81.0536153 72.6665959,68.5895664 65.5306235,58.7538164 C80.1579342,71.0354555 102.925186,89.6564346 116.936297,98.6885162 C117.492778,99.0488089 118.18289,99.1545267 118.820245,98.9915562 C119.461886,98.8240587 120.004441,98.3947965 120.314014,97.8116177 C128.530277,82.2852143 127.449986,62.7780165 117.585168,43 C141.878592,64.6822684 153.227538,94.8938596 144.833458,118.35043 C144.524153,119.213481 144.748031,120.175593 145.408417,120.818155 C151.595587,126.841939 155.003029,134.90179 155.003029,143.512864 C155.002761,144.552999 154.95188,145.590472 154.850385,146.623417 Z" id="Shape" fill="#FFFFFF" fill-rule="nonzero"></path>
                    </g>
                </g>
            </g>
        </g>
    </g>
</svg>